<svg xmlns="http://www.w3.org/2000/svg" width="24" height="24" viewBox="0 0 24 24" fill="none">
  <path d="M20 10.5C20 9.76623 20 8.88757 19.9171 8.5423C19.8436 8.2362 19.7224 7.94356 19.5579 7.67515C19.3724 7.3724 19.113 7.11297 18.5941 6.59411L15.4059 3.40589C14.887 2.88703 14.6276 2.6276 14.3249 2.44208C14.0564 2.27759 13.7638 2.15638 13.4577 2.08289C13.1124 2 12.7455 2 12.0118 2H8.8C7.11984 2 6.27976 2 5.63803 2.32698C5.07354 2.6146 4.6146 3.07354 4.32698 3.63803C4 4.27976 4 5.11984 4 6.8V17.2C4 18.8802 4 19.7202 4.32698 20.362C4.6146 20.9265 5.07354 21.3854 5.63803 21.673C6.27976 22 7.11984 22 8.8 22H11M14 2.26946V6.4C14 6.96005 14 7.24008 14.109 7.45399C14.2049 7.64215 14.3578 7.79513 14.546 7.89101C14.7599 8 15.0399 8 15.6 8H19.7305" stroke="#000" stroke-width="2" stroke-linecap="round" stroke-linejoin="round"/>
  <path d="M14.3045 17.5556H22C22 17 21.7654 16.4355 21.3259 15.7777C20.8864 15.1199 20.2616 14.6072 19.5307 14.3045C18.7998 14.0017 17.9956 13.9225 17.2196 14.0769C16.4437 14.2312 15.731 14.6122 15.1716 15.1716C14.6122 15.731 14.2312 16.4437 14.0769 17.2196C13.9225 17.9956 14.0017 18.7998 14.3045 19.5307C14.6072 20.2616 15.1199 20.8864 15.7777 21.3259C16.4355 21.7654 17.2089 22 18 22C19.0797 22 20 22 21.5 21" stroke="#000" stroke-width="2" stroke-linecap="round" stroke-linejoin="round"/>
</svg>