<svg xmlns="http://www.w3.org/2000/svg" width="24" height="24" viewBox="0 0 24 24" fill="none">
  <path fill-rule="evenodd" clip-rule="evenodd" d="M20.5 1.5H11.1884H11.1882C10.6354 1.5 9.94657 1.5 9.33976 1.52834C9.03452 1.54259 8.73107 1.56478 8.46498 1.6012C8.23404 1.63282 7.90806 1.68939 7.63803 1.82698C7.07354 2.1146 6.6146 2.57354 6.32698 3.13803C6.18939 3.40807 6.13282 3.73404 6.1012 3.96498C6.06478 4.23107 6.04259 4.53452 6.02834 4.83976C6 5.44664 6 6.13555 6 6.68836V7.5H5.3558C4.80923 7.5 4.28648 7.72369 3.90909 8.11905L1.55329 10.587C1.19815 10.9591 1 11.4536 1 11.968V16.5C1 17.6046 1.89543 18.5 3 18.5H3.17071C3.06015 18.8128 3 19.1494 3 19.5C3 21.1569 4.34315 22.5 6 22.5C7.65685 22.5 9 21.1569 9 19.5C9 19.1494 8.93984 18.8128 8.82929 18.5H15.1707C15.0602 18.8128 15 19.1494 15 19.5C15 21.1569 16.3431 22.5 18 22.5C19.6569 22.5 21 21.1569 21 19.5C21 19.1046 20.9235 18.7271 20.7845 18.3815C20.9797 18.3355 21.1727 18.2695 21.362 18.173C21.9265 17.8854 22.3854 17.4265 22.673 16.862C22.8658 16.4836 22.9371 16.0904 22.9694 15.695C23 15.3205 23 14.8657 23 14.3386V9.5V4.5V4C23 2.61929 21.8807 1.5 20.5 1.5ZM8 16.5V7.5V6.7C8 6.13465 8.0002 5.48891 8.02616 4.93305C8.03915 4.65478 8.05784 4.41799 8.08272 4.23625C8.09885 4.11846 8.11364 4.05595 8.11921 4.0324C8.12045 4.02718 8.12123 4.02387 8.12147 4.02231C8.21362 3.85284 8.35284 3.71362 8.52231 3.62147L8.5261 3.62069L8.53239 3.61921L8.5324 3.61921C8.55595 3.61364 8.61846 3.59885 8.73625 3.58272C8.91799 3.55784 9.15478 3.53915 9.43305 3.52616C9.98891 3.5002 10.6347 3.5 11.2 3.5L18.05 3.50001C18.0172 3.66156 18 3.82877 18 4V9.5C18 10.0523 18.4477 10.5 19 10.5C19.5523 10.5 20 10.0523 20 9.5V4C20 3.72485 20.2223 3.5016 20.497 3.50001L20.5 3.5L20.5001 3.50001C20.5025 3.50015 20.5375 3.50225 20.5893 3.52199C20.6393 3.54102 20.6938 3.57224 20.745 3.62139C20.8271 3.70019 20.9995 3.92087 21 4.49765V9.5C21 10.6046 20.1046 11.5 19 11.5C17.8954 11.5 17 10.6046 17 9.5V6C17 5.44772 16.5523 5 16 5C15.4477 5 15 5.44772 15 6V9.5C15 11.7091 16.7909 13.5 19 13.5C19.7286 13.5 20.4117 13.3052 21 12.9649V14.3C21 14.8766 20.9992 15.2488 20.9761 15.5322C20.9539 15.8038 20.9162 15.9045 20.891 15.954C20.7951 16.1422 20.6422 16.2951 20.454 16.391C20.4045 16.4162 20.3038 16.4539 20.0322 16.4761C19.7488 16.4992 19.3766 16.5 18.8 16.5H18H8ZM6 18.5C6.55228 18.5 7 18.9477 7 19.5C7 20.0523 6.55228 20.5 6 20.5C5.44771 20.5 5 20.0523 5 19.5C5 18.9477 5.44771 18.5 6 18.5ZM6 9.5V16.5L3 16.5V11.968L5.3558 9.5H6ZM18 18.5C18.5523 18.5 19 18.9477 19 19.5C19 20.0523 18.5523 20.5 18 20.5C17.4477 20.5 17 20.0523 17 19.5C17 18.9477 17.4477 18.5 18 18.5ZM9.5 6.5C9.5 5.94772 9.94771 5.5 10.5 5.5L12.5 5.5C13.0523 5.5 13.5 5.94772 13.5 6.5C13.5 7.05229 13.0523 7.5 12.5 7.5L10.5 7.5C9.94771 7.5 9.5 7.05228 9.5 6.5ZM10.5 9C9.94771 9 9.5 9.44772 9.5 10C9.5 10.5523 9.94771 11 10.5 11H12.5C13.0523 11 13.5 10.5523 13.5 10C13.5 9.44772 13.0523 9 12.5 9L10.5 9ZM14 14.5L10.5 14.5C9.94771 14.5 9.5 14.0523 9.5 13.5C9.5 12.9477 9.94771 12.5 10.5 12.5L14 12.5C14.5523 12.5 15 12.9477 15 13.5C15 14.0523 14.5523 14.5 14 14.5Z" fill="#000"/>
</svg>